<?xml version="1.0" standalone="no"?>
<!DOCTYPE svg PUBLIC "-//W3C//DTD SVG 20010904//EN"
 "http://www.w3.org/TR/2001/REC-SVG-20010904/DTD/svg10.dtd">
<svg version="1.0" xmlns="http://www.w3.org/2000/svg"
 width="225.000000pt" height="225.000000pt" viewBox="0 0 225.000000 225.000000"
 preserveAspectRatio="xMidYMid meet">

<g transform="translate(0.000000,225.000000) scale(0.100000,-0.100000)"
fill="#000000" stroke="none">
<path d="M860 2086 c-268 -57 -482 -243 -565 -489 -86 -258 -33 -526 143 -730
l42 -48 0 -335 0 -334 400 0 400 0 0 174 0 175 178 3 c168 3 179 4 211 27 55
39 71 88 71 218 l0 113 130 65 130 65 -129 190 c-118 174 -129 195 -136 248
-28 240 -155 444 -350 561 -31 19 -101 49 -155 68 -119 41 -261 52 -370 29z
m329 -131 c241 -77 411 -294 436 -557 6 -64 10 -72 106 -212 54 -80 99 -148
99 -151 0 -3 -45 -26 -100 -51 l-100 -47 0 -143 c0 -197 18 -184 -250 -184
l-210 0 0 -175 0 -175 -287 2 -288 3 0 301 0 301 -60 65 c-68 72 -127 176
-150 264 -21 82 -19 224 5 318 47 183 157 320 321 400 168 81 312 93 478 41z"/>
<path d="M1124 1895 c-4 -8 -4 -25 -1 -37 3 -11 -1 -52 -10 -90 -12 -55 -23
-77 -50 -103 -42 -41 -35 -67 8 -31 35 30 67 27 138 -11 24 -13 61 -23 82 -23
l39 0 0 -60 0 -60 -80 0 c-47 0 -80 -4 -80 -10 0 -6 33 -10 80 -10 l80 0 0
-45 c0 -33 4 -45 15 -45 13 0 15 21 15 130 l0 130 -34 31 c-28 25 -37 43 -49
102 -8 40 -14 88 -13 107 l1 35 -68 3 c-54 2 -68 0 -73 -13z m116 -20 c0 -11
-12 -15 -50 -15 -46 0 -60 7 -43 23 3 4 26 7 50 7 32 0 43 -4 43 -15z m10
-110 c18 -79 33 -110 58 -124 39 -23 -60 -10 -108 14 -27 14 -56 25 -65 25
-18 0 -18 0 0 79 20 82 20 83 62 79 36 -3 36 -4 53 -73z"/>
<path d="M822 1778 c-8 -8 -12 -45 -12 -100 l0 -88 -29 0 c-17 0 -33 -4 -36
-10 -3 -5 -21 -10 -39 -10 -17 0 -37 -5 -44 -12 -17 -17 -17 -231 1 -226 6 3
13 17 15 31 l3 27 160 0 c99 0 159 4 159 10 0 6 -60 10 -160 10 l-160 0 0 65
0 65 29 0 c28 0 30 -2 33 -47 l3 -48 150 0 150 0 3 48 c3 46 4 47 38 47 l34 0
0 -65 0 -65 -50 0 c-64 0 -66 -18 -2 -22 l47 -3 3 -42 c2 -33 -2 -46 -22 -66
l-25 -25 -3 27 -3 26 -107 3 c-67 2 -108 -1 -108 -7 0 -6 41 -11 98 -13 89 -3
97 -5 97 -23 0 -19 -8 -20 -103 -23 -76 -2 -102 -6 -99 -15 3 -8 36 -12 111
-12 l107 0 -3 -35 -3 -35 -50 2 c-27 1 -67 5 -87 8 -27 5 -41 3 -53 -8 -17
-17 -10 -29 68 -110 20 -22 37 -41 37 -43 0 -13 -60 -1 -74 15 -23 25 -61 34
-86 21 -28 -15 -25 2 5 30 14 13 25 28 25 34 0 6 -17 27 -37 48 l-37 38 37 38
c20 21 37 45 37 53 0 17 -70 89 -86 89 -6 0 -25 -16 -44 -35 -19 -19 -39 -35
-45 -35 -6 0 -26 16 -45 35 -19 19 -39 35 -45 35 -16 0 -85 -73 -85 -90 0 -8
17 -31 37 -52 l37 -38 -37 -38 c-20 -21 -37 -45 -37 -53 0 -21 62 -79 85 -79
11 0 35 15 55 34 l35 35 42 -39 c42 -40 42 -57 -2 -46 -14 4 -25 15 -27 28 -2
12 -9 23 -15 26 -21 6 -15 -45 7 -66 l20 -19 -20 -18 c-44 -40 -11 -125 49
-125 14 0 55 18 92 40 60 36 70 39 98 29 17 -6 49 -9 71 -7 38 3 40 2 38 -22
-4 -51 21 -64 58 -29 l22 21 7 -30 c7 -32 31 -59 42 -48 3 3 -1 14 -10 24 -10
10 -17 27 -17 37 0 17 2 16 24 -4 34 -32 61 -24 61 17 l0 32 57 0 c31 0 63 3
72 6 27 10 18 43 -16 64 -29 17 -30 20 -11 20 48 0 53 19 53 202 0 131 -3 169
-12 166 -8 -3 -14 -28 -16 -66 l-3 -62 -78 0 -79 0 -13 33 c-8 19 -16 90 -19
177 l-5 145 -40 3 c-22 2 -44 8 -49 13 -6 5 -38 9 -73 9 l-63 0 0 88 c0 95 -7
112 -50 112 -14 0 -31 -5 -38 -12z m58 -83 c0 -58 -2 -65 -20 -65 -18 0 -20 7
-20 65 0 58 2 65 20 65 18 0 20 -7 20 -65z m0 -110 c0 -8 -9 -15 -20 -15 -11
0 -20 7 -20 15 0 8 9 15 20 15 11 0 20 -7 20 -15z m-70 -70 c0 -48 -2 -55 -20
-55 -18 0 -20 7 -20 55 0 48 2 55 20 55 18 0 20 -7 20 -55z m145 0 c0 -44 -3
-50 -22 -53 -22 -3 -23 0 -23 53 0 53 1 56 23 53 19 -3 22 -9 22 -53z m70 0
c0 -44 -3 -50 -22 -53 -21 -3 -23 1 -23 46 0 53 6 64 30 60 11 -3 15 -16 15
-53z m-145 -10 c0 -38 -3 -45 -20 -45 -17 0 -20 7 -20 45 0 38 3 45 20 45 17
0 20 -7 20 -45z m-289 -192 c12 -16 12 -17 -2 -6 -9 7 -20 9 -24 5 -5 -4 -5
-1 -1 6 9 16 11 15 27 -5z m-41 -17 c0 -2 -8 -10 -17 -17 -16 -13 -17 -12 -4
4 13 16 21 21 21 13z m597 -67 c14 -40 15 -99 4 -154 -5 -22 -12 -56 -15 -75
l-7 -35 23 30 c74 96 163 164 186 140 17 -16 -39 -83 -111 -130 -41 -27 -76
-52 -76 -55 -1 -3 28 -4 64 -2 49 3 71 0 90 -12 14 -9 25 -20 25 -25 0 -18
-56 -21 -115 -7 -33 8 -62 13 -64 10 -2 -2 5 -14 17 -27 23 -24 29 -57 11 -57
-5 0 -24 15 -40 33 l-30 32 -27 -33 c-15 -18 -33 -32 -39 -32 -21 0 -15 29 13
57 31 31 25 39 -17 24 -42 -14 -126 -14 -135 1 -14 22 29 39 96 38 36 -1 70
-1 75 -1 6 1 -17 18 -50 39 -67 43 -135 115 -135 144 0 15 5 18 23 13 48 -15
89 -49 133 -111 26 -36 48 -63 50 -61 2 2 -3 37 -12 78 -17 82 -12 159 12 197
20 30 36 24 51 -19z m183 -51 c0 -7 -20 -21 -45 -31 -24 -10 -61 -37 -81 -60
l-37 -41 6 55 c4 30 7 62 7 72 0 15 10 17 75 17 53 0 75 -4 75 -12z m-272 -93
l4 -30 -26 24 c-32 30 -33 43 -3 39 16 -2 23 -11 25 -33z m260 -86 c-14 -9
-58 -12 -58 -4 0 3 15 18 33 34 l32 30 3 -26 c2 -14 -2 -30 -10 -34z m-454
-21 c11 -18 0 -48 -20 -55 -12 -4 -46 56 -38 68 9 15 46 6 58 -13z m-74 -51
c14 -24 13 -28 -5 -42 -46 -35 -100 -29 -100 11 0 19 61 67 79 61 6 -2 18 -15
26 -30z"/>
<path d="M1120 1615 c0 -8 5 -15 10 -15 6 0 10 7 10 15 0 8 -4 15 -10 15 -5 0
-10 -7 -10 -15z"/>
<path d="M1280 1525 c0 -9 5 -15 11 -13 6 2 11 8 11 13 0 5 -5 11 -11 13 -6 2
-11 -4 -11 -13z"/>
<path d="M1280 1335 c0 -73 3 -96 13 -92 8 2 12 30 12 92 0 62 -4 90 -12 93
-10 3 -13 -20 -13 -93z"/>
</g>
</svg>
